<svg width="180" height="180" viewBox="0 0 180 180" fill="none" xmlns="http://www.w3.org/2000/svg">
  <defs>
    <linearGradient id="bg" x1="22" y1="18" x2="160" y2="162" gradientUnits="userSpaceOnUse">
      <stop stop-color="#0F172A"/>
      <stop offset="1" stop-color="#2563EB"/>
    </linearGradient>
    <linearGradient id="bgDark" x1="22" y1="18" x2="160" y2="162" gradientUnits="userSpaceOnUse">
      <stop stop-color="#0A1B3A"/>
      <stop offset="1" stop-color="#1B54D7"/>
    </linearGradient>
    <radialGradient id="glow" cx="0" cy="0" r="1" gradientUnits="userSpaceOnUse" gradientTransform="translate(132 132) rotate(132) scale(78)">
      <stop stop-color="#38BDF8" stop-opacity="0.7"/>
      <stop offset="1" stop-color="#38BDF8" stop-opacity="0"/>
    </radialGradient>
    <linearGradient id="panel" x1="54" y1="42" x2="126" y2="132" gradientUnits="userSpaceOnUse">
      <stop stop-color="white" stop-opacity="0.16"/>
      <stop offset="1" stop-color="white" stop-opacity="0.04"/>
    </linearGradient>
    <style>
      .bgshape { fill: url(#bg); }
      @media (prefers-color-scheme: dark) {
        .bgshape { fill: url(#bgDark); }
      }
    </style>
  </defs>
  <rect x="14" y="14" width="152" height="152" rx="35" class="bgshape"/>
  <circle cx="132" cy="132" r="42" fill="url(#glow)"/>
  <rect x="35" y="33" width="110" height="114" rx="30" fill="url(#panel)" stroke="rgba(255,255,255,0.22)"/>
  <path d="M52 73C52 63.6112 59.6112 56 69 56H111C120.389 56 128 63.6112 128 73V90C128 99.3888 120.389 107 111 107H86L67 121V107H69C59.6112 107 52 99.3888 52 90V73Z" fill="white"/>
  <rect x="70" y="72" width="34" height="8" rx="4" fill="#3B82F6"/>
  <rect x="70" y="86" width="23" height="8" rx="4" fill="#38BDF8"/>
  <path d="M131 48L134 56L142 59L134 62L131 70L128 62L120 59L128 56L131 48Z" fill="white" fill-opacity="0.95"/>
  <path d="M40 74C44 63 53 55 66 51" stroke="rgba(255,255,255,0.55)" stroke-width="4" stroke-linecap="round"/>
  <path d="M133 58C139 64 142 71 142 81" stroke="rgba(255,255,255,0.55)" stroke-width="4" stroke-linecap="round"/>
  <circle cx="116" cy="121" r="12" fill="#22C55E" fill-opacity="0.18"/>
  <circle cx="116" cy="121" r="6" fill="#22C55E"/>
</svg>
